<?xml version="1.0" encoding="UTF-8"?>
<svg id="Layer_1" data-name="Layer 1" xmlns="http://www.w3.org/2000/svg" xmlns:xlink="http://www.w3.org/1999/xlink" viewBox="0 0 2421.44 831.99">
  <defs>
    <style>
      .cls-1 {
        fill: url(#linear-gradient-2);
      }

      .cls-2 {
        fill: #231f20;
        font-family: CircularStd-Bold, 'Circular Std';
        font-size: 644.29px;
        font-weight: 700;
        letter-spacing: -.04em;
      }

      .cls-3 {
        clip-path: url(#clippath-4);
      }

      .cls-4 {
        clip-path: url(#clippath);
      }

      .cls-5 {
        fill: none;
      }

      .cls-6 {
        clip-path: url(#clippath-3);
      }

      .cls-7 {
        fill: url(#linear-gradient-3);
      }

      .cls-8 {
        fill: url(#linear-gradient);
      }
    </style>
    <clipPath id="clippath">
      <rect class="cls-5" y="0" width="831.98" height="831.99"/>
    </clipPath>
    <clipPath id="clippath-3">
      <path class="cls-5" d="m412.96,649.33c-127.49-1.62-230.34-105.47-230.34-233.33s104.48-233.35,233.35-233.35,233.35,104.48,233.35,233.35-102.85,231.71-230.34,233.33c-.99.02-1.99.02-2.99.02s-2.02,0-3.03-.02M416,0C217.62,0,51.67,138.85,10.06,324.67c-6.58,29.39-10.06,59.95-10.06,91.32,0,229.75,186.25,416,416,416s415.99-186.25,415.99-416c0-31.37-3.47-61.93-10.06-91.32C780.31,138.85,614.37,0,416,0Z"/>
    </clipPath>
    <linearGradient id="linear-gradient" x1="110.07" y1="-83.87" x2="111.17" y2="-83.87" gradientTransform="translate(-48074.09 64896.35) rotate(-90) scale(581.75 -578.14)" gradientUnits="userSpaceOnUse">
      <stop offset="0" stop-color="#541bc7"/>
      <stop offset=".31" stop-color="#ab00ff"/>
      <stop offset="1" stop-color="#ab00ff"/>
    </linearGradient>
    <clipPath id="clippath-4">
      <path class="cls-5" d="m415.98,0C217.61,0,51.66,138.85,10.04,324.67c.55,2.44,1.11,4.87,1.7,7.29,26.35,108.4,95.17,200.18,187.83,256.73.3.19.58.36.88.54,62.05,37.66,134.74,59.54,212.49,60.09-127.49-1.62-230.34-105.47-230.34-233.33s104.48-233.35,233.35-233.35,233.35,104.48,233.35,233.35-102.85,231.71-230.34,233.33c77.74-.54,150.41-22.41,212.46-60.04.32-.2.64-.4.96-.59,92.67-56.55,161.49-148.35,187.82-256.77.59-2.41,1.17-4.83,1.7-7.25C780.29,138.85,614.36,0,415.98,0Z"/>
    </clipPath>
    <linearGradient id="linear-gradient-2" x1="112.78" y1="-84.1" x2="113.88" y2="-84.1" gradientTransform="translate(62532.45 -83536.45) rotate(90) scale(740.12 -738.59)" gradientUnits="userSpaceOnUse">
      <stop offset="0" stop-color="#ab00ff"/>
      <stop offset=".44" stop-color="#ab00ff"/>
      <stop offset=".91" stop-color="#541bc7"/>
      <stop offset="1" stop-color="#541bc7"/>
    </linearGradient>
    <linearGradient id="linear-gradient-3" x1="1072.31" y1="360.81" x2="2421.44" y2="360.81" gradientUnits="userSpaceOnUse">
      <stop offset="0" stop-color="#541bc7"/>
      <stop offset=".82" stop-color="#ab00ff"/>
    </linearGradient>
  </defs>
  <g class="cls-4">
    <g class="cls-6">
      <rect class="cls-8" x="0" y="0" width="831.98" height="831.99"/>
    </g>
    <g class="cls-3">
      <rect class="cls-1" x="10.04" y="0" width="811.87" height="649.33"/>
    </g>
  </g>
  <text/>
  <g>
    <g>
      <path class="cls-7" d="m1404.76,434.58c0,97.29-71.52,168.16-166.23,168.16s-166.23-70.87-166.23-168.16,71.52-168.16,166.23-168.16,166.23,70.23,166.23,168.16Zm-85.69,0c0-59.92-38.66-90.2-80.54-90.2s-80.54,30.28-80.54,90.2,38.66,90.2,80.54,90.2,80.54-30.28,80.54-90.2Z"/>
      <path class="cls-7" d="m1522.67,410.74l77.96-11.6c18.04-2.58,23.84-11.6,23.84-22.55,0-22.55-17.4-41.23-53.48-41.23s-57.99,23.84-60.56,51.54l-76.03-16.11c5.15-49.61,50.9-104.37,135.95-104.37,100.51,0,137.88,56.7,137.88,120.48v155.92c0,16.75,1.93,39.3,3.87,50.25h-78.6c-1.93-8.38-3.22-25.77-3.22-38.01-16.11,25.13-46.39,47.03-93.42,47.03-67.65,0-108.88-45.75-108.88-95.36,0-56.7,41.88-88.27,94.71-96Zm101.8,54.12v-14.17l-71.52,10.95c-21.91,3.22-39.3,15.46-39.3,39.95,0,18.68,13.53,36.72,41.23,36.72,36.08,0,69.58-17.4,69.58-73.45Z"/>
      <path class="cls-7" d="m1815.81,488.7c1.93,25.13,20.62,48.32,57.99,48.32,28.35,0,41.88-14.82,41.88-31.57,0-14.17-9.67-25.77-34.15-30.93l-41.88-9.66c-61.21-13.53-88.91-50.25-88.91-94.71,0-56.7,50.25-103.73,118.55-103.73,90.2,0,120.48,57.34,124.35,91.49l-71.52,16.11c-2.58-18.68-16.11-42.52-52.19-42.52-22.55,0-40.59,13.53-40.59,31.57,0,15.46,11.6,25.13,28.99,28.35l45.1,9.66c62.5,12.89,94.07,50.9,94.07,97.29,0,51.54-39.95,104.37-123.06,104.37-95.36,0-128.21-61.85-132.08-97.93l73.45-16.11Z"/>
      <path class="cls-7" d="m2083.84,118.88c29.64,0,52.83,23.84,52.83,53.48s-23.19,52.19-52.83,52.19-52.83-23.84-52.83-52.19,23.84-53.48,52.83-53.48Zm-42.52,474.2v-316.99h85.69v316.99h-85.69Z"/>
      <path class="cls-7" d="m2239.75,488.7c1.93,25.13,20.62,48.32,57.99,48.32,28.35,0,41.88-14.82,41.88-31.57,0-14.17-9.66-25.77-34.15-30.93l-41.88-9.66c-61.21-13.53-88.91-50.25-88.91-94.71,0-56.7,50.25-103.73,118.55-103.73,90.2,0,120.48,57.34,124.35,91.49l-71.52,16.11c-2.58-18.68-16.11-42.52-52.19-42.52-22.55,0-40.59,13.53-40.59,31.57,0,15.46,11.6,25.13,28.99,28.35l45.1,9.66c62.5,12.89,94.07,50.9,94.07,97.29,0,51.54-39.95,104.37-123.06,104.37-95.35,0-128.21-61.85-132.08-97.93l73.45-16.11Z"/>
    </g>
  </g>
</svg>