<?xml version="1.0" encoding="UTF-8"?>
<svg id="Layer_1" data-name="Layer 1" xmlns="http://www.w3.org/2000/svg" xmlns:xlink="http://www.w3.org/1999/xlink" viewBox="0 0 2693.09 1467.77">
  <defs>
    <style>
      .cls-1 {
        fill: url(#linear-gradient-2);
      }

      .cls-2 {
        fill: #ca3666;
      }

      .cls-3 {
        fill: url(#linear-gradient);
      }

      .cls-4 {
        fill: #231f20;
      }
    </style>
    <linearGradient id="linear-gradient" x1="1348.21" y1="2.57" x2="1348.21" y2="644.88" gradientUnits="userSpaceOnUse">
      <stop offset=".7" stop-color="#4bbd95"/>
      <stop offset="1" stop-color="#2a6952"/>
    </linearGradient>
    <linearGradient id="linear-gradient-2" x1="1348.21" y1="142.2" x2="1348.21" y2="872.17" gradientUnits="userSpaceOnUse">
      <stop offset=".04" stop-color="#2a6952"/>
      <stop offset="1" stop-color="#4bbd95"/>
    </linearGradient>
  </defs>
  <text/>
  <g>
    <path class="cls-4" d="m253.21,1151.42c-4.51-43.81-30.93-65.07-85.05-65.07-50.25,0-76.67,18.04-76.67,50.25,0,27.06,18.68,42.52,66.36,54.12,48.32,11.6,95.35,23.19,126.92,37.37,37.37,16.75,67.01,43.17,67.01,103.73,0,94.07-70.87,135.94-170.74,135.94-105.66,0-179.11-47.03-181.04-143.03h86.33c1.29,43.81,38.01,70.87,95.35,70.87,52.83,0,83.11-22.55,83.11-60.56,0-25.13-12.89-42.52-66.36-54.12-52.83-11.6-86.98-19.33-117.26-32.86-45.74-20.62-71.52-51.54-71.52-105.66,0-76.67,52.19-131.43,156.56-131.43s168.8,58.63,172.02,140.45h-85.05Z"/>
    <path class="cls-4" d="m623.67,1452.95l-50.25-184.27-50.25,184.27h-85.69l-90.2-316.99h88.27l51.54,203.59,43.81-203.59h85.05l49.61,203.59,48.32-203.59h86.33l-90.84,316.99h-85.69Z"/>
    <path class="cls-4" d="m824.04,1097.95v-77.96h83.76v77.96h-83.76Zm0,355v-316.99h83.76v316.99h-83.76Z"/>
    <path class="cls-4" d="m978.66,1452.95v-257.71h-47.03v-59.27h47.03c0-77.31,44.46-115.97,134.66-115.97v67.65c-42.52,0-52.19,11.6-52.19,48.32h54.12v59.27h-54.12v257.71h-82.47Z"/>
    <path class="cls-4" d="m1315.62,1244.2h77.96v90.2c0,67.01-38.66,126.92-128.21,126.92s-129.5-59.27-129.5-127.57v-283.49h82.47v85.69h175.25v59.27h-175.25v130.15c0,39.95,14.17,63.14,48.32,63.14s48.97-22.55,48.97-61.85v-82.47Z"/>
    <path class="cls-4" d="m1557.87,1452.95l-144.96-427.81h95.35l93.42,300.24,92.78-300.24h92.78l-144.96,427.81h-84.4Z"/>
    <path class="cls-4" d="m1751.8,1294.45c0-100.51,62.5-166.87,163-166.87s161.07,65.72,161.07,166.87-62.5,166.87-161.07,166.87-163-68.29-163-166.87Zm239.67,0c0-64.43-25.77-96-76.67-96s-76.67,31.57-76.67,96,25.77,96.64,76.67,96.64,76.67-32.21,76.67-96.64Z"/>
    <path class="cls-4" d="m2285.91,1244.2h77.96v90.2c0,67.01-38.66,126.92-128.21,126.92s-129.5-59.27-129.5-127.57v-283.49h82.47v85.69h175.25v59.27h-175.25v130.15c0,39.95,14.17,63.14,48.32,63.14s48.97-22.55,48.97-61.85v-82.47Z"/>
    <path class="cls-4" d="m2474.68,1316.36c2.58,47.68,29.64,78.6,70.87,78.6,27.06,0,50.9-13.53,56.7-35.44h86.33c-19.33,65.07-71.52,101.8-139.17,101.8-105.66,0-158.5-57.99-158.5-172.67,0-97.93,56.05-161.07,153.34-161.07s148.83,63.14,148.83,188.78h-218.41Zm132.08-52.83c-1.29-47.03-32.21-69.58-65.07-69.58s-61.21,25.77-64.43,69.58h129.5Z"/>
  </g>
  <g>
    <g>
      <path class="cls-3" d="m1669.37,292.69c-11.51,83.09-49.84,160.14-109.15,219.45l-212.02,212.02-212.02-212.02c-59.31-59.31-97.63-136.37-109.14-219.45l321.15,321.15,321.17-321.15Z"/>
      <path class="cls-1" d="m1713.19,398.49c0,38.29-14.6,76.59-43.82,105.8l-321.17,321.15-321.15-321.15c-58.43-58.43-58.44-153.17,0-211.6,11.51,83.09,49.82,160.14,109.14,219.45l212.02,212.02,212.02-212.02c59.31-59.31,97.64-136.37,109.15-219.45,29.22,29.21,43.82,67.51,43.82,105.8Z"/>
    </g>
    <rect class="cls-2" x="1165.53" y="67.42" width="365.34" height="365.34" rx="19.91" ry="19.91" transform="translate(218.04 1026.57) rotate(-45)"/>
  </g>
</svg>